<svg width="512" height="512" viewBox="0 0 512 512" fill="none" xmlns="http://www.w3.org/2000/svg">
  <!-- Background Circle -->
  <circle cx="256" cy="256" r="256" fill="#0070f3"/>

  <!-- Calendar Background -->
  <rect x="116" y="140" width="280" height="280" rx="24" fill="white"/>

  <!-- Calendar Header -->
  <rect x="116" y="140" width="280" height="80" rx="24" fill="#0052cc"/>
  <rect x="116" y="196" width="280" height="24" fill="#0052cc"/>

  <!-- Calendar Rings -->
  <rect x="156" y="120" width="20" height="60" rx="10" fill="white"/>
  <rect x="236" y="120" width="20" height="60" rx="10" fill="white"/>
  <rect x="316" y="120" width="20" height="60" rx="10" fill="white"/>

  <!-- Calendar Grid Dots -->
  <circle cx="160" cy="260" r="12" fill="#e0e0e0"/>
  <circle cx="210" cy="260" r="12" fill="#e0e0e0"/>
  <circle cx="260" cy="260" r="12" fill="#e0e0e0"/>
  <circle cx="310" cy="260" r="12" fill="#e0e0e0"/>
  <circle cx="360" cy="260" r="12" fill="#e0e0e0"/>

  <circle cx="160" cy="310" r="12" fill="#e0e0e0"/>
  <circle cx="210" cy="310" r="12" fill="#e0e0e0"/>
  <circle cx="260" cy="310" r="12" fill="#e0e0e0"/>
  <circle cx="310" cy="310" r="12" fill="#e0e0e0"/>
  <circle cx="360" cy="310" r="12" fill="#e0e0e0"/>

  <!-- Booking Checkmark -->
  <circle cx="280" cy="350" r="60" fill="#00c853"/>
  <path d="M255 350 L270 365 L305 330" stroke="white" stroke-width="12" stroke-linecap="round" stroke-linejoin="round" fill="none"/>
</svg>
