<svg width="16" height="12" viewBox="0 0 16 12" xmlns="http://www.w3.org/2000/svg">
  <rect width="16" height="12" fill="#B22234"/>
  <g fill="#FFFFFF">
    <rect y="0" width="16" height="0.92"/>
    <rect y="1.85" width="16" height="0.92"/>
    <rect y="3.69" width="16" height="0.92"/>
    <rect y="5.54" width="16" height="0.92"/>
    <rect y="7.38" width="16" height="0.92"/>
    <rect y="9.23" width="16" height="0.92"/>
    <rect y="11.08" width="16" height="0.92"/>
  </g>
  <rect width="6.4" height="6.15" fill="#3C3B6E"/>
  <g fill="#FFFFFF">
    <circle cx="1.28" cy="1.23" r="0.15"/>
    <circle cx="2.56" cy="1.23" r="0.15"/>
    <circle cx="3.84" cy="1.23" r="0.15"/>
    <circle cx="5.12" cy="1.23" r="0.15"/>
    <circle cx="1.92" cy="1.85" r="0.15"/>
    <circle cx="3.2" cy="1.85" r="0.15"/>
    <circle cx="4.48" cy="1.85" r="0.15"/>
    <circle cx="1.28" cy="2.46" r="0.15"/>
    <circle cx="2.56" cy="2.46" r="0.15"/>
    <circle cx="3.84" cy="2.46" r="0.15"/>
    <circle cx="5.12" cy="2.46" r="0.15"/>
    <circle cx="1.92" cy="3.08" r="0.15"/>
    <circle cx="3.2" cy="3.08" r="0.15"/>
    <circle cx="4.48" cy="3.08" r="0.15"/>
    <circle cx="1.28" cy="3.69" r="0.15"/>
    <circle cx="2.56" cy="3.69" r="0.15"/>
    <circle cx="3.84" cy="3.69" r="0.15"/>
    <circle cx="5.12" cy="3.69" r="0.15"/>
    <circle cx="1.92" cy="4.31" r="0.15"/>
    <circle cx="3.2" cy="4.31" r="0.15"/>
    <circle cx="4.48" cy="4.31" r="0.15"/>
    <circle cx="1.28" cy="4.92" r="0.15"/>
    <circle cx="2.56" cy="4.92" r="0.15"/>
    <circle cx="3.84" cy="4.92" r="0.15"/>
    <circle cx="5.12" cy="4.92" r="0.15"/>
    <circle cx="1.92" cy="5.54" r="0.15"/>
    <circle cx="3.2" cy="5.54" r="0.15"/>
    <circle cx="4.48" cy="5.54" r="0.15"/>
  </g>
</svg>